<svg width="14" height="15" viewBox="0 0 14 15" fill="none" xmlns="http://www.w3.org/2000/svg">
<path d="M13.1336 8.2345C13.2576 8.3245 13.3501 8.4525 13.3976 8.5985C13.4466 8.7455 13.4476 8.9035 13.4021 9.0515C13.0852 10.0648 12.5461 10.9945 11.8241 11.773C11.7199 11.8848 11.5836 11.9615 11.4339 11.9925C11.2843 12.0236 11.1287 12.0075 10.9886 11.9465L10.0111 11.5175C9.90431 11.47 9.78788 11.4481 9.67111 11.4535C9.55475 11.4603 9.44166 11.4945 9.34111 11.5535C9.24042 11.6118 9.15497 11.6931 9.09178 11.7908C9.0286 11.8885 8.98947 11.9998 8.97761 12.1155L8.86011 13.1805C8.84319 13.3321 8.77982 13.4748 8.67867 13.589C8.57753 13.7032 8.44357 13.7834 8.29511 13.8185C7.25711 14.066 6.17511 14.066 5.13711 13.8185C4.98969 13.7828 4.85674 13.7028 4.75617 13.5893C4.6556 13.4758 4.59223 13.3341 4.57461 13.1835L4.45711 12.1205C4.4368 11.9394 4.35047 11.772 4.21461 11.6505C4.1084 11.5568 3.97784 11.4951 3.83804 11.4726C3.69823 11.45 3.5549 11.4675 3.42461 11.523L2.44711 11.9525C2.3074 12.0135 2.15223 12.0297 2.00291 11.999C1.85359 11.9683 1.71743 11.8922 1.61311 11.781C0.889975 11.0017 0.35015 10.0707 0.0331135 9.056C-0.0123431 8.90899 -0.0109684 8.75148 0.0370472 8.60528C0.0850628 8.45909 0.177344 8.33143 0.301114 8.24L1.16361 7.6025C1.25786 7.5334 1.3345 7.44307 1.38733 7.33883C1.44016 7.23458 1.46769 7.11936 1.46769 7.0025C1.46769 6.88564 1.44016 6.77042 1.38733 6.66617C1.3345 6.56193 1.25786 6.4716 1.16361 6.4025L0.301114 5.766C0.178005 5.67506 0.086124 5.54818 0.0381268 5.40285C-0.00987031 5.25751 -0.0116218 5.10087 0.0331135 4.9545C0.350062 3.94059 0.88973 3.0104 1.61261 2.232C1.68261 2.1565 1.76761 2.0965 1.86261 2.0565C1.95515 2.01731 2.05462 1.99711 2.15511 1.99711C2.25561 1.99711 2.35508 2.01731 2.44761 2.0565L3.42111 2.4855C3.52821 2.5315 3.64459 2.55179 3.76094 2.54473C3.87729 2.53767 3.99036 2.50346 4.09112 2.44485C4.19187 2.38623 4.27749 2.30484 4.34114 2.20719C4.40478 2.10954 4.44467 1.99834 4.45761 1.8825L4.57561 0.8215C4.59277 0.668295 4.65729 0.524257 4.76018 0.409451C4.86307 0.294644 4.9992 0.214786 5.14961 0.181C5.66637 0.06699 6.19347 0.00633869 6.72261 0C7.24861 0.006 7.77261 0.0665 8.28611 0.181C8.43686 0.21455 8.57328 0.294545 8.67617 0.409719C8.77905 0.524892 8.84321 0.669439 8.85961 0.823L8.97761 1.883C8.99012 1.99866 9.02967 2.10976 9.09306 2.20731C9.15646 2.30486 9.24191 2.38613 9.34253 2.44454C9.44314 2.50295 9.55608 2.53687 9.67223 2.54355C9.78838 2.55023 9.90447 2.52949 10.0111 2.483L10.9841 2.0545C11.1244 1.99345 11.2802 1.9773 11.43 2.00827C11.5799 2.03925 11.7165 2.11582 11.8211 2.2275C12.5436 3.00509 13.0829 3.93445 13.3996 4.9475C13.4454 5.09438 13.4441 5.2519 13.396 5.39803C13.3478 5.54416 13.2552 5.67159 13.1311 5.7625L12.2711 6.399C12.1765 6.46748 12.0994 6.55738 12.0462 6.66136C11.993 6.76534 11.9652 6.88044 11.965 6.99724C11.9648 7.11404 11.9922 7.22923 12.0451 7.33339C12.098 7.43754 12.1747 7.5277 12.2691 7.5965L13.1336 8.2345ZM6.71761 8.9985C7.24805 8.9985 7.75675 8.78779 8.13183 8.41271C8.5069 8.03764 8.71761 7.52893 8.71761 6.9985C8.71761 6.46807 8.5069 5.95936 8.13183 5.58429C7.75675 5.20921 7.24805 4.9985 6.71761 4.9985C6.18718 4.9985 5.67847 5.20921 5.3034 5.58429C4.92833 5.95936 4.71761 6.46807 4.71761 6.9985C4.71761 7.52893 4.92833 8.03764 5.3034 8.41271C5.67847 8.78779 6.18718 8.9985 6.71761 8.9985Z" fill="#3295F0"/>
</svg>
