<svg width="32" height="32" viewBox="0 0 32 32" fill="none" xmlns="http://www.w3.org/2000/svg">
<path fill-rule="evenodd" clip-rule="evenodd" d="M9.15875 0.509516C10.8205 0.433016 11.3503 0.416016 15.5833 0.416016C19.8163 0.416016 20.3462 0.434432 22.0065 0.509516C23.6668 0.584599 24.8002 0.849516 25.7918 1.23343C26.8302 1.62585 27.7723 2.23927 28.5515 3.0326C29.3448 3.81035 29.9568 4.75102 30.3478 5.79085C30.7332 6.78252 30.9967 7.91585 31.0732 9.57335C31.1497 11.2379 31.1667 11.7678 31.1667 15.9993C31.1667 20.2323 31.1483 20.7622 31.0732 22.4239C30.9981 24.0814 30.7332 25.2148 30.3478 26.2064C29.9568 27.2464 29.3438 28.1886 28.5515 28.9675C27.7723 29.7608 26.8302 30.3729 25.7918 30.7639C24.8002 31.1492 23.6668 31.4127 22.0093 31.4892C20.3462 31.5657 19.8163 31.5827 15.5833 31.5827C11.3503 31.5827 10.8205 31.5643 9.15875 31.4892C7.50125 31.4141 6.36792 31.1492 5.37625 30.7639C4.3363 30.3728 3.39408 29.7598 2.61517 28.9675C1.82237 28.1893 1.20886 27.2475 0.817417 26.2078C0.4335 25.2162 0.17 24.0828 0.0935 22.4253C0.017 20.7608 0 20.2309 0 15.9993C0 11.7663 0.0184166 11.2365 0.0935 9.57618C0.168583 7.91585 0.4335 6.78252 0.817417 5.79085C1.20944 4.75113 1.82342 3.80938 2.61658 3.03118C3.39439 2.23856 4.33567 1.62506 5.37483 1.23343C6.3665 0.849516 7.49983 0.586016 9.15733 0.509516H9.15875ZM21.8804 3.31452C20.2371 3.23943 19.7441 3.22385 15.5833 3.22385C11.4226 3.22385 10.9296 3.23943 9.28625 3.31452C7.76617 3.38393 6.94167 3.63752 6.392 3.85143C5.66525 4.13477 5.14533 4.47052 4.59992 5.01593C4.0829 5.51892 3.68501 6.13125 3.43542 6.80802C3.2215 7.35768 2.96792 8.18218 2.8985 9.70227C2.82342 11.3456 2.80783 11.8386 2.80783 15.9993C2.80783 20.1601 2.82342 20.6531 2.8985 22.2964C2.96792 23.8165 3.2215 24.641 3.43542 25.1907C3.68475 25.8664 4.08283 26.4799 4.59992 26.9828C5.10283 27.4999 5.71625 27.8979 6.392 28.1473C6.94167 28.3612 7.76617 28.6148 9.28625 28.6842C10.9296 28.7593 11.4212 28.7749 15.5833 28.7749C19.7455 28.7749 20.2371 28.7593 21.8804 28.6842C23.4005 28.6148 24.225 28.3612 24.7747 28.1473C25.5014 27.8639 26.0213 27.5282 26.5668 26.9828C27.0838 26.4799 27.4819 25.8664 27.7313 25.1907C27.9452 24.641 28.1988 23.8165 28.2682 22.2964C28.3433 20.6531 28.3588 20.1601 28.3588 15.9993C28.3588 11.8386 28.3433 11.3456 28.2682 9.70227C28.1988 8.18218 27.9452 7.35768 27.7313 6.80802C27.4479 6.08127 27.1122 5.56135 26.5668 5.01593C26.0637 4.49895 25.4514 4.10106 24.7747 3.85143C24.225 3.63752 23.4005 3.38393 21.8804 3.31452ZM13.5929 20.8033C14.7045 21.266 15.9423 21.3284 17.0948 20.98C18.2473 20.6315 19.2431 19.8936 19.9121 18.8925C20.5811 17.8914 20.8817 16.6891 20.7627 15.4909C20.6437 14.2927 20.1124 13.1731 19.2596 12.3231C18.7159 11.7798 18.0586 11.3638 17.3348 11.105C16.6111 10.8462 15.8389 10.7511 15.074 10.8266C14.3091 10.902 13.5705 11.1461 12.9112 11.5413C12.252 11.9365 11.6886 12.4729 11.2615 13.112C10.8345 13.751 10.5544 14.4768 10.4416 15.2371C10.3287 15.9974 10.3858 16.7733 10.6088 17.5088C10.8317 18.2444 11.215 18.9214 11.731 19.491C12.247 20.0607 12.8829 20.5089 13.5929 20.8033ZM9.9195 10.3355C10.6633 9.59173 11.5463 9.00173 12.5181 8.59919C13.4899 8.19666 14.5315 7.98948 15.5833 7.98948C16.6352 7.98948 17.6768 8.19666 18.6486 8.59919C19.6204 9.00173 20.5034 9.59173 21.2472 10.3355C21.991 11.0793 22.581 11.9623 22.9835 12.9341C23.386 13.9059 23.5932 14.9475 23.5932 15.9993C23.5932 17.0512 23.386 18.0928 22.9835 19.0646C22.581 20.0364 21.991 20.9194 21.2472 21.6632C19.745 23.1653 17.7077 24.0092 15.5833 24.0092C13.459 24.0092 11.4216 23.1653 9.9195 21.6632C8.41736 20.161 7.57346 18.1237 7.57346 15.9993C7.57346 13.875 8.41736 11.8377 9.9195 10.3355ZM25.3697 9.18235C25.554 9.00848 25.7015 8.7994 25.8036 8.56748C25.9057 8.33556 25.9601 8.08552 25.9638 7.83217C25.9675 7.57881 25.9204 7.32729 25.8251 7.0925C25.7298 6.8577 25.5884 6.64441 25.4093 6.46524C25.2301 6.28607 25.0168 6.14467 24.782 6.04942C24.5472 5.95416 24.2957 5.90698 24.0423 5.91068C23.789 5.91437 23.539 5.96886 23.307 6.07092C23.0751 6.17298 22.866 6.32053 22.6922 6.50485C22.354 6.86331 22.1689 7.33944 22.1761 7.83217C22.1833 8.3249 22.3822 8.79543 22.7306 9.14388C23.0791 9.49233 23.5496 9.69126 24.0423 9.69844C24.5351 9.70562 25.0112 9.52049 25.3697 9.18235Z" fill="#3295F0"/>
</svg>
