<svg width="31" height="30" viewBox="0 0 31 30" fill="none" xmlns="http://www.w3.org/2000/svg">
<path d="M7.03724 30V9.75905H0.392063V30H7.03724ZM3.71551 6.99383C6.0328 6.99383 7.47521 5.43956 7.47521 3.49725C7.43203 1.51113 6.03289 0 3.75949 0C1.48644 0 0 1.51116 0 3.49725C0 5.43965 1.44205 6.99383 3.67213 6.99383H3.71531H3.71551ZM10.7153 30H17.3605V18.6965C17.3605 18.0915 17.4037 17.4872 17.5792 17.0547C18.0596 15.8461 19.153 14.5942 20.9886 14.5942C23.3933 14.5942 24.3552 16.4504 24.3552 19.1714V29.9999H31V18.3939C31 12.1767 27.7216 9.28385 23.3495 9.28385C19.7647 9.28385 18.1907 11.3125 17.3163 12.6942H17.3607V9.75863H10.7155C10.8027 11.6579 10.7155 29.9996 10.7155 29.9996L10.7153 30Z" fill="#3295F0"/>
</svg>
