<svg width="33" height="26" viewBox="0 0 33 26" fill="none" xmlns="http://www.w3.org/2000/svg">
<path d="M31.6917 0.5H1.33457C0.688756 0.5 0.166992 1.00781 0.166992 1.63636V24.3636C0.166992 24.9922 0.688756 25.5 1.33457 25.5H31.6917C32.3375 25.5 32.8593 24.9922 32.8593 24.3636V1.63636C32.8593 1.00781 32.3375 0.5 31.6917 0.5ZM28.7436 4.36719L17.2319 13.0852C16.9473 13.3018 16.5496 13.3018 16.265 13.0852L4.74975 4.36719C4.70634 4.33458 4.67451 4.28958 4.6587 4.23848C4.64289 4.18738 4.64391 4.13274 4.66161 4.08223C4.67931 4.03172 4.71281 3.98787 4.75741 3.95682C4.802 3.92577 4.85546 3.90908 4.9103 3.90909H28.583C28.6379 3.90908 28.6913 3.92577 28.7359 3.95682C28.7805 3.98787 28.814 4.03172 28.8317 4.08223C28.8494 4.13274 28.8504 4.18738 28.8346 4.23848C28.8188 4.28958 28.787 4.33458 28.7436 4.36719Z" fill="#3295F0"/>
</svg>
