<svg width="27" height="26" viewBox="0 0 27 26" fill="none" xmlns="http://www.w3.org/2000/svg">
<path d="M24.5371 26C10.6742 26.0195 0.152382 15.3725 0.167007 1.62987C0.167007 0.731249 0.895007 0 1.79201 0H6.082C6.88638 0 7.5705 0.5915 7.68913 1.38775C7.97204 3.29721 8.52749 5.1562 9.3385 6.90787L9.50587 7.26862C9.6183 7.51137 9.64249 7.78576 9.57426 8.04444C9.50603 8.30313 9.34966 8.52989 9.13212 8.68562C7.80288 9.63461 7.29588 11.544 8.331 13.0325C9.62937 14.9012 11.2657 16.5392 13.1345 17.8376C14.6246 18.8711 16.534 18.3641 17.4814 17.0365C17.6369 16.8183 17.8639 16.6613 18.1229 16.5928C18.382 16.5242 18.6569 16.5484 18.9 16.6611L19.2591 16.8269C21.0109 17.6394 22.8699 18.1951 24.7792 18.4779C25.5755 18.5965 26.167 19.2806 26.167 20.0866V24.375C26.167 24.5885 26.1249 24.7999 26.0431 24.9972C25.9614 25.1945 25.8415 25.3737 25.6905 25.5246C25.5394 25.6755 25.3601 25.7952 25.1627 25.8767C24.9654 25.9583 24.7539 26.0002 24.5404 26H24.5371Z" fill="#3295F0"/>
</svg>
