<svg width="15" height="14" viewBox="0 0 15 14" fill="none" xmlns="http://www.w3.org/2000/svg">
<path d="M3.32481 14V4.55422H0.185234V14H3.32481ZM1.75543 3.26379C2.85026 3.26379 3.53173 2.53846 3.53173 1.63205C3.51134 0.705193 2.8503 0 1.77621 0C0.702281 0 0 0.705207 0 1.63205C0 2.53851 0.681309 3.26379 1.73493 3.26379H1.75533H1.75543ZM5.06256 14H8.20214V8.72502C8.20214 8.44271 8.22254 8.16069 8.30545 7.95888C8.53242 7.39483 9.049 6.81064 9.91629 6.81064C11.0524 6.81064 11.5069 7.67685 11.5069 8.94665V13.9999H14.6463V8.58381C14.6463 5.68244 13.0974 4.33246 11.0317 4.33246C9.33802 4.33246 8.59438 5.27917 8.18126 5.92397H8.20221V4.55403H5.06263C5.10383 5.44037 5.06263 13.9998 5.06263 13.9998L5.06256 14Z" fill="white"/>
</svg>
