<svg width="16" height="16" viewBox="0 0 16 16" fill="none" xmlns="http://www.w3.org/2000/svg">
<path fill-rule="evenodd" clip-rule="evenodd" d="M4.73285 0.710016C5.51485 0.674016 5.76418 0.666016 7.75619 0.666016C9.74819 0.666016 9.99752 0.674682 10.7789 0.710016C11.5602 0.745349 12.0935 0.870016 12.5602 1.05068C13.0489 1.23535 13.4922 1.52402 13.8589 1.89735C14.2322 2.26335 14.5202 2.70602 14.7042 3.19535C14.8855 3.66202 15.0095 4.19535 15.0455 4.97535C15.0815 5.75868 15.0895 6.00802 15.0895 7.99935C15.0895 9.99135 15.0809 10.2407 15.0455 11.0227C15.0102 11.8027 14.8855 12.336 14.7042 12.8027C14.5202 13.2921 14.2317 13.7355 13.8589 14.102C13.4922 14.4753 13.0489 14.7633 12.5602 14.9473C12.0935 15.1287 11.5602 15.2527 10.7802 15.2887C9.99752 15.3247 9.74819 15.3327 7.75619 15.3327C5.76418 15.3327 5.51485 15.324 4.73285 15.2887C3.95285 15.2533 3.41952 15.1287 2.95285 14.9473C2.46347 14.7633 2.02007 14.4749 1.65352 14.102C1.28044 13.7358 0.991728 13.2926 0.807518 12.8033C0.626852 12.3367 0.502852 11.8033 0.466852 11.0233C0.430852 10.24 0.422852 9.99068 0.422852 7.99935C0.422852 6.00735 0.431518 5.75802 0.466852 4.97668C0.502185 4.19535 0.626852 3.66202 0.807518 3.19535C0.992 2.70607 1.28093 2.26289 1.65418 1.89668C2.02021 1.52368 2.46317 1.23498 2.95219 1.05068C3.41885 0.870016 3.95219 0.746016 4.73219 0.710016H4.73285ZM10.7195 2.03002C9.94619 1.99468 9.71418 1.98735 7.75619 1.98735C5.79818 1.98735 5.56618 1.99468 4.79285 2.03002C4.07752 2.06268 3.68952 2.18202 3.43085 2.28268C3.08885 2.41602 2.84419 2.57402 2.58752 2.83068C2.34422 3.06738 2.15697 3.35554 2.03952 3.67402C1.93885 3.93268 1.81952 4.32068 1.78685 5.03602C1.75152 5.80935 1.74418 6.04135 1.74418 7.99935C1.74418 9.95735 1.75152 10.1893 1.78685 10.9627C1.81952 11.678 1.93885 12.066 2.03952 12.3247C2.15685 12.6427 2.34419 12.9313 2.58752 13.168C2.82419 13.4113 3.11285 13.5987 3.43085 13.716C3.68952 13.8167 4.07752 13.936 4.79285 13.9687C5.56618 14.004 5.79752 14.0113 7.75619 14.0113C9.71485 14.0113 9.94619 14.004 10.7195 13.9687C11.4349 13.936 11.8229 13.8167 12.0815 13.716C12.4235 13.5827 12.6682 13.4247 12.9249 13.168C13.1682 12.9313 13.3555 12.6427 13.4729 12.3247C13.5735 12.066 13.6929 11.678 13.7255 10.9627C13.7609 10.1893 13.7682 9.95735 13.7682 7.99935C13.7682 6.04135 13.7609 5.80935 13.7255 5.03602C13.6929 4.32068 13.5735 3.93268 13.4729 3.67402C13.3395 3.33202 13.1815 3.08735 12.9249 2.83068C12.6881 2.5874 12.4 2.40016 12.0815 2.28268C11.8229 2.18202 11.4349 2.06268 10.7195 2.03002ZM6.81952 10.26C7.34262 10.4778 7.9251 10.5072 8.46747 10.3432C9.00984 10.1792 9.47845 9.83196 9.79326 9.36084C10.1081 8.88973 10.2496 8.32393 10.1936 7.76009C10.1375 7.19624 9.88752 6.66933 9.48619 6.26935C9.23034 6.01367 8.92099 5.81789 8.58041 5.69611C8.23982 5.57434 7.87647 5.52959 7.51652 5.56509C7.15656 5.6006 6.80895 5.71547 6.49872 5.90144C6.18849 6.0874 5.92335 6.33985 5.72239 6.64058C5.52143 6.94132 5.38964 7.28288 5.33653 7.64066C5.28341 7.99844 5.31029 8.36354 5.41521 8.70969C5.52014 9.05584 5.70051 9.37442 5.94333 9.6425C6.18616 9.91057 6.4854 10.1215 6.81952 10.26ZM5.09085 5.33402C5.44087 4.984 5.8564 4.70635 6.31372 4.51692C6.77104 4.3275 7.26119 4.23 7.75619 4.23C8.25118 4.23 8.74133 4.3275 9.19865 4.51692C9.65597 4.70635 10.0715 4.984 10.4215 5.33402C10.7715 5.68403 11.0492 6.09956 11.2386 6.55688C11.428 7.0142 11.5255 7.50435 11.5255 7.99935C11.5255 8.49435 11.428 8.9845 11.2386 9.44182C11.0492 9.89914 10.7715 10.3147 10.4215 10.6647C9.71463 11.3716 8.75588 11.7687 7.75619 11.7687C6.75649 11.7687 5.79774 11.3716 5.09085 10.6647C4.38396 9.95779 3.98683 8.99904 3.98683 7.99935C3.98683 6.99966 4.38396 6.04091 5.09085 5.33402ZM12.3615 4.79135C12.4483 4.70953 12.5177 4.61114 12.5657 4.502C12.6137 4.39286 12.6394 4.27519 12.6411 4.15597C12.6429 4.03674 12.6207 3.91838 12.5758 3.80789C12.531 3.6974 12.4645 3.59702 12.3802 3.51271C12.2958 3.42839 12.1955 3.36185 12.085 3.31703C11.9745 3.2722 11.8561 3.25 11.7369 3.25174C11.6177 3.25348 11.5 3.27912 11.3909 3.32715C11.2817 3.37517 11.1833 3.44461 11.1015 3.53135C10.9424 3.70004 10.8553 3.9241 10.8587 4.15597C10.862 4.38784 10.9556 4.60927 11.1196 4.77324C11.2836 4.93722 11.505 5.03083 11.7369 5.03421C11.9688 5.0376 12.1928 4.95048 12.3615 4.79135Z" fill="white"/>
</svg>
