<svg width="14" height="12" viewBox="0 0 14 12" fill="none" xmlns="http://www.w3.org/2000/svg">
<path d="M13.0914 1.97344C12.6133 2.17969 12.093 2.32813 11.557 2.38594C12.1135 2.05537 12.5301 1.53313 12.7289 0.917194C12.2068 1.2278 11.6348 1.44561 11.0383 1.56094C10.789 1.29442 10.4875 1.0821 10.1525 0.937206C9.81755 0.792311 9.45635 0.71795 9.09141 0.718756C7.61484 0.718756 6.42734 1.91563 6.42734 3.38438C6.42734 3.59063 6.45234 3.79688 6.49297 3.99532C4.28203 3.87969 2.31016 2.82344 0.999219 1.20626C0.760352 1.61425 0.635177 2.0788 0.636719 2.55157C0.636719 3.47657 1.10703 4.29219 1.82422 4.77188C1.40157 4.75524 0.988817 4.63907 0.619531 4.43282V4.46563C0.619531 5.76094 1.53516 6.83438 2.75547 7.08126C2.52634 7.14077 2.29064 7.17122 2.05391 7.17188C1.88047 7.17188 1.71641 7.15469 1.55078 7.13126C1.88828 8.18751 2.87109 8.95469 4.04141 8.97969C3.12578 9.69688 1.97891 10.1188 0.733594 10.1188C0.510156 10.1188 0.303906 10.1109 0.0898438 10.0859C1.27109 10.8438 2.67266 11.2813 4.18203 11.2813C9.08203 11.2813 11.7633 7.22188 11.7633 3.69844C11.7633 3.58282 11.7633 3.46719 11.7555 3.35157C12.2742 2.97188 12.7289 2.50157 13.0914 1.97344Z" fill="white"/>
</svg>
