<svg width="17" height="12" viewBox="0 0 17 12" fill="none" xmlns="http://www.w3.org/2000/svg">
<path d="M15.7579 2.3387C15.6673 2.01552 15.4908 1.72293 15.2472 1.49204C14.9968 1.25404 14.6898 1.08379 14.3552 0.997368C13.1032 0.667368 8.08723 0.667368 8.08723 0.667368C5.99612 0.643577 3.90552 0.748218 1.82723 0.980702C1.49269 1.07351 1.18627 1.24756 0.935232 1.48737C0.688565 1.7247 0.509898 2.01737 0.416565 2.33804C0.19236 3.54586 0.0834264 4.77226 0.0912318 6.0007C0.0832318 7.22804 0.191898 8.45404 0.416565 9.66337C0.507898 9.9827 0.685898 10.274 0.933232 10.5094C1.18057 10.7447 1.48857 10.9147 1.82723 11.0047C3.0959 11.334 8.08723 11.334 8.08723 11.334C10.181 11.3579 12.2743 11.2532 14.3552 11.0207C14.6898 10.9343 14.9968 10.764 15.2472 10.526C15.4939 10.2907 15.6692 9.99804 15.7572 9.67937C15.9873 8.472 16.0992 7.2451 16.0912 6.01604C16.1085 4.78177 15.9968 3.54908 15.7579 2.33804V2.3387ZM6.49257 8.28337V3.7187L10.6659 6.00137L6.49257 8.28337Z" fill="white"/>
</svg>
