<svg width="16" height="17" viewBox="0 0 16 17" fill="none" xmlns="http://www.w3.org/2000/svg">
<path d="M10.6673 11.8711L12.0451 10.4928C12.2307 10.3094 12.4654 10.1839 12.7209 10.1315C12.9764 10.0791 13.2416 10.102 13.4844 10.1974L15.1635 10.8681C15.4088 10.9677 15.6191 11.1377 15.768 11.3567C15.9169 11.5758 15.9976 11.8339 16 12.0988V15.1753C15.9986 15.3555 15.9607 15.5335 15.8887 15.6986C15.8167 15.8638 15.712 16.0126 15.581 16.1362C15.45 16.2598 15.2953 16.3556 15.1263 16.4178C14.9573 16.4801 14.7775 16.5074 14.5976 16.4983C2.83136 15.7661 0.457192 5.79791 0.00819117 1.98294C-0.0126518 1.7956 0.00639187 1.60596 0.0640691 1.42651C0.121746 1.24706 0.21675 1.08186 0.34283 0.941784C0.468911 0.801703 0.62321 0.689915 0.795577 0.613775C0.967944 0.537635 1.15447 0.498868 1.34289 0.500025H4.31368C4.57878 0.50081 4.83758 0.580919 5.0568 0.730049C5.27602 0.879178 5.44563 1.09051 5.54382 1.33686L6.21424 3.01667C6.31281 3.25854 6.33796 3.52409 6.28654 3.78017C6.23513 4.03624 6.10944 4.27149 5.92516 4.45652L4.5474 5.83483C4.5474 5.83483 5.34084 11.2065 10.6673 11.8711Z" fill="white"/>
</svg>
